<svg width="70" height="70" viewBox="0 0 70 70" fill="none" xmlns="http://www.w3.org/2000/svg">
<path d="M12.9104 59.5022L7.99512 4.375H62.0045L57.0826 59.4934L34.967 65.625L12.9104 59.5022Z" fill="#E44F26"/>
<path d="M35 60.9394L52.8719 55.9847L57.0762 8.88342H35V60.9394Z" fill="#F1662A"/>
<path d="M35 29.3278H26.0531L25.4363 22.4044H35V15.6428H18.0469L18.2088 17.4584L19.8691 36.0894H35V29.3278ZM35 46.8869L34.9694 46.8956L27.44 44.8634L26.9588 39.4713H20.1709L21.1181 50.085L34.9694 53.9306L35 53.9219V46.8869Z" fill="#EBEBEB"/>
<path d="M34.9761 29.3278V36.0894H43.3017L42.5186 44.8591L34.9761 46.8935V53.9285L48.8383 50.0851L48.9389 48.9432L50.527 31.1435L50.6933 29.3278H34.9761ZM34.9761 15.6428V22.4044H51.3079L51.4436 20.8863L51.752 17.4584L51.9139 15.6428H34.9761Z" fill="white"/>
</svg>
