<svg width="70" height="70" viewBox="0 0 70 70" fill="none" xmlns="http://www.w3.org/2000/svg">
<path d="M35.3741 40.9062C34.3219 41.3896 33.1691 42.0196 30.8613 43.2862C29.9863 43.7784 29.0719 44.2705 28.221 44.7343C28.1619 44.6752 28.1007 44.6009 28.0416 44.5396C23.4763 39.6615 15.0325 36.2162 15.3913 29.6646C15.5247 27.2781 16.345 21.0131 31.6072 13.4049C44.1679 7.21432 54.1625 8.92932 55.8885 12.7334C58.3691 18.1562 50.5313 28.2471 37.5594 29.7106C36.1237 30.0016 34.641 29.9664 33.2208 29.6074C31.8005 29.2485 30.4791 28.575 29.3541 27.6368C28.6672 26.8909 28.5644 26.8471 28.3107 26.9959C27.8929 27.2146 28.1619 27.8906 28.3107 28.2777C28.8055 29.1736 29.4749 29.9612 30.2793 30.5939C31.0837 31.2266 32.0069 31.6917 32.9941 31.9615C38.0989 33.0649 43.4212 32.5377 48.2103 30.4543C56.0722 27.4115 62.2104 18.9524 60.4122 11.8606C58.6075 4.67026 46.6725 2.29901 35.3807 6.31088C28.3091 8.69393 21.7756 12.4453 16.1525 17.3512C9.93129 23.1699 8.94691 28.2274 9.34941 30.3449C10.7975 37.8634 21.1619 42.7568 25.3182 46.3815C25.1023 46.4981 24.9135 46.6024 24.7516 46.6943C22.6778 47.7246 14.7722 51.8568 12.8013 56.2274C10.5635 61.1799 13.16 64.7302 14.875 65.2071C17.4595 65.8268 20.1731 65.6237 22.6365 64.6259C25.0999 63.6282 27.19 61.8857 28.6147 59.6421C29.825 57.782 30.5682 55.6572 30.7811 53.4482C30.994 51.2393 30.6703 49.0116 29.8375 46.9546C30.3287 46.5624 30.8527 46.2133 31.4038 45.9112C32.4625 45.2855 33.471 44.6687 34.3657 44.1918C37.4296 42.7586 40.7722 42.0199 44.1547 42.0284C51.2553 42.864 52.6575 47.2937 52.3885 49.1596C52.2622 49.8215 51.9958 50.4487 51.6072 50.9992C51.2186 51.5496 50.7168 52.0106 50.1353 52.3512C49.6432 52.664 49.4791 52.769 49.5228 52.9921C49.5819 53.3202 49.8203 53.3049 50.2382 53.2459C51.305 52.9087 52.2449 52.2567 52.9343 51.3755C53.6238 50.4944 54.0306 49.4253 54.1013 48.3087C54.32 43.9337 50.1485 39.1343 42.7635 39.1781C40.5524 39.1845 38.3637 39.6206 36.3191 40.4621C35.991 40.5977 35.6723 40.7436 35.3632 40.8996L35.3741 40.9062ZM24.8194 58.054C22.4613 60.6199 19.18 61.589 17.7625 60.7687C16.2313 59.8937 16.8372 56.0984 19.7313 53.3837C21.4439 51.8376 23.2967 50.4542 25.2657 49.2515C25.6091 49.0327 26.1166 48.744 26.7269 48.3765L26.891 48.2868L27.2497 48.068C27.7654 49.7986 27.8122 51.6351 27.3851 53.3897C26.9581 55.1443 26.0727 56.7539 24.8194 58.054Z" fill="#CD6799"/>
</svg>
