<svg width="70" height="70" viewBox="0 0 70 70" fill="none" xmlns="http://www.w3.org/2000/svg">
<g clip-path="url(#clip0_326_98)">
<path d="M64.3608 53.7261C60.5474 53.6216 57.6358 53.9782 55.1448 55.0271C54.4377 55.3262 53.3101 55.3328 53.1947 56.2193C53.5835 56.6272 53.6431 57.2359 53.9532 57.7379C54.5471 58.6972 55.5512 59.9872 56.4464 60.6648C57.4248 61.402 58.4332 62.1922 59.4821 62.831C61.3491 63.9696 63.4322 64.6193 65.2265 65.7579C66.2863 66.4305 67.3369 67.2765 68.371 68.0351C68.8818 68.4091 69.2258 68.9921 69.8875 69.2272V69.1206C69.5391 68.6765 69.4494 68.0651 69.129 67.6019L67.7191 66.1921C66.341 64.3633 64.5916 62.7572 62.7333 61.4239C61.2507 60.358 57.9312 58.9203 57.3137 57.1965L57.2049 57.0877C58.256 56.9679 59.4865 56.5879 60.4583 56.327C62.088 55.8911 63.5454 56.0043 65.2265 55.5685L67.5037 54.9194V54.4857C66.6533 53.614 66.0468 52.4584 65.1198 51.6682C62.6912 49.6004 60.0421 47.5365 57.3143 45.815C55.8016 44.8601 53.9324 44.2383 52.3284 43.429C51.7881 43.1577 50.8415 43.0144 50.4849 42.5616C49.6433 41.4892 49.1839 40.1286 48.5348 38.8768C47.1741 36.2556 45.8387 33.3954 44.6317 30.6376C43.8092 28.7579 43.2733 26.9035 42.2479 25.218C37.326 17.1259 32.0284 12.2407 23.8209 7.44021C22.0737 6.41919 19.9715 6.0156 17.7495 5.48786L14.1713 5.27185C13.4429 4.96833 12.6866 4.07747 12.003 3.6438C9.28444 1.92497 2.3096 -1.81128 0.29491 3.10185C-0.976028 6.20154 2.19639 9.2263 3.33061 10.7986C4.12741 11.8989 5.14624 13.1354 5.71444 14.3746C6.09069 15.1905 6.15468 16.0065 6.47514 16.8678C7.26155 18.9913 7.94897 21.3024 8.96835 23.2635C9.48296 24.2566 10.0512 25.3017 10.703 26.1904C11.1006 26.7351 11.7858 26.9768 11.8952 27.8162C11.2242 28.7541 11.1859 30.2088 10.8102 31.3944C9.116 36.7374 9.75694 43.3765 12.2201 47.3287C12.9764 48.5444 14.7581 51.1459 17.2059 50.1484C19.3486 49.2745 18.8701 46.5724 19.4831 44.1864C19.622 43.6461 19.5367 43.2485 19.808 42.8854V42.9942L21.7603 46.8951C23.2046 49.2215 25.7656 51.6523 27.9383 53.2929C29.0644 54.1433 29.9508 55.6128 31.4077 56.1104V56.0016H31.2989C31.0167 55.5614 30.5748 55.3798 30.2161 55.0276C29.3679 54.1947 28.424 53.1606 27.7229 52.2079C25.747 49.5272 24.0014 46.5915 22.4122 43.5372C21.6515 42.0782 20.9914 40.4698 20.3505 38.9851C20.1027 38.4125 20.1071 37.5451 19.5919 37.2504C18.8914 38.3376 17.8573 39.218 17.3148 40.5015C16.4496 42.5545 16.3364 45.0603 16.0159 47.6558C15.8256 47.7241 15.9093 47.6771 15.7983 47.7646C14.2878 47.3993 13.7584 45.8461 13.1962 44.5112C11.7776 41.1403 11.513 35.712 12.7626 31.8286C13.0852 30.8246 14.5465 27.6631 13.9548 26.734C13.6726 25.8092 12.7412 25.2727 12.2201 24.5656C11.5748 23.6917 10.9322 22.5405 10.4854 21.5299C9.32327 18.9022 8.78296 15.9501 7.5585 13.2929C6.97335 12.0219 5.98624 10.7357 5.17468 9.60802C4.27507 8.35622 3.26936 7.4331 2.57264 5.92099C2.32491 5.38286 1.98968 4.52154 2.35499 3.97083C2.47257 3.59677 2.63718 3.44091 3.00632 3.31951C3.63413 2.83443 5.38632 3.48193 6.03983 3.75318C7.77889 4.47505 9.22921 5.16302 10.703 6.13919C11.408 6.60677 12.1238 7.51294 12.978 7.76505H13.9542C15.4794 8.1156 17.1884 7.87169 18.6152 8.30536C21.1358 9.07208 23.3938 10.2643 25.4446 11.5587C31.691 15.5044 36.801 21.1181 40.2955 27.8195C40.8572 28.8985 41.1011 29.9261 41.5966 31.0707C42.5941 33.3779 43.8524 35.7514 44.8455 38.0094C45.8387 40.2587 46.8044 42.5321 48.2077 44.4051C48.9449 45.3901 51.7903 45.9178 53.0848 46.4647C53.9926 46.8469 55.4795 47.2467 56.3381 47.7657C57.9787 48.755 59.568 49.934 61.1085 51.0168C61.8752 51.5593 64.2421 52.7493 64.3597 53.7277L64.3608 53.7261ZM15.9049 12.4261C15.1103 12.4113 14.5487 12.5114 13.9548 12.6421V12.7509H14.0614C14.4415 13.5286 15.1103 14.0306 15.5801 14.7011L16.6629 16.9783L16.7717 16.8716C17.4427 16.3975 17.7501 15.6411 17.7457 14.4856C17.4766 14.2012 17.4383 13.849 17.2032 13.5094C16.8958 13.0588 16.2954 12.8045 15.9044 12.4266L15.9049 12.4261Z" fill="#00618A"/>
</g>
<defs>
<clipPath id="clip0_326_98">
<rect width="70" height="70" fill="white"/>
</clipPath>
</defs>
</svg>
