<svg width="78" height="68" viewBox="0 0 78 68" fill="none" xmlns="http://www.w3.org/2000/svg">
<g clip-path="url(#clip0_321_131)">
<path d="M64.1315 22.0176C63.3014 21.7389 62.4643 21.4806 61.6209 21.2431C61.7626 20.6764 61.893 20.1166 62.0088 19.5667C63.9094 10.5355 62.6669 3.25977 58.4229 0.864264C54.3538 -1.43223 47.6991 0.962387 40.9783 6.68781C40.316 7.25308 39.6683 7.83465 39.036 8.43195C38.6126 8.03476 38.1818 7.64529 37.7438 7.26372C30.7 1.14193 23.6398 -1.43819 19.4004 0.964176C15.3349 3.26783 14.1311 10.1075 15.8422 18.6665C16.0125 19.5142 16.2047 20.3575 16.4187 21.1957C15.4193 21.4736 14.455 21.7695 13.5321 22.0844C5.27384 24.9029 0 29.3196 0 33.9009C0 38.6326 5.6617 43.3786 14.263 46.2564C14.9604 46.4887 15.6635 46.704 16.3718 46.9021C16.1417 47.8048 15.9375 48.7136 15.7594 49.6274C14.1281 58.038 15.402 64.716 19.4564 67.005C23.6441 69.3689 30.6726 66.9394 37.5162 61.0833C38.0711 60.6073 38.6138 60.1177 39.1438 59.6151C39.8286 60.2618 40.5317 60.8898 41.2522 61.4982C47.8816 67.082 54.4288 69.3367 58.4793 67.0414C62.6629 64.6706 64.0228 57.4966 62.2574 48.7685C62.1183 48.0847 61.9624 47.4043 61.7897 46.7279C62.2833 46.5847 62.7678 46.4374 63.24 46.2841C72.182 43.3843 78 38.6958 78 33.9009C78 29.3029 72.5558 24.8563 64.1315 22.0176ZM62.1922 43.1883C61.7656 43.3264 61.3281 43.4597 60.882 43.5894C59.8949 40.5303 58.5628 37.2777 56.9324 33.9167C58.4881 30.636 59.769 27.4248 60.7285 24.3857C61.5265 24.6118 62.3007 24.8501 63.0472 25.1015C70.2652 27.534 74.6679 31.1299 74.6679 33.9009C74.6679 36.8524 69.913 40.6839 62.1922 43.1883ZM58.9887 49.402C59.7693 53.2613 59.8805 56.7507 59.3635 59.4788C58.8991 61.9301 57.965 63.5642 56.8096 64.2188C54.3517 65.6116 49.0949 63.8013 43.4256 59.0257C42.7554 58.4601 42.1014 57.8763 41.4643 57.275C43.6623 54.9222 45.8588 52.187 48.0026 49.149C51.7734 48.8216 55.3358 48.2859 58.5664 47.5549C58.722 48.1673 58.8629 48.7831 58.9887 49.402ZM26.5919 63.9781C24.1904 64.8081 22.2775 64.832 21.1212 64.1794C18.6609 62.7905 17.6381 57.4283 19.0332 50.2358C19.1991 49.3859 19.389 48.5407 19.6027 47.7011C22.7976 48.393 26.3341 48.8905 30.1138 49.1905C32.2722 52.1631 34.5321 54.8953 36.8096 57.2879C36.3256 57.7463 35.8301 58.193 35.3236 58.6276C32.2972 61.217 29.2646 63.0541 26.5919 63.9781ZM15.341 43.1701C11.5376 41.8975 8.39658 40.2437 6.24366 38.439C4.30889 36.8175 3.33237 35.2072 3.33237 33.9009C3.33237 31.1207 7.56661 27.5745 14.629 25.1644C15.486 24.8721 16.383 24.5963 17.3139 24.3374C18.2901 27.4451 19.5704 30.6945 21.1155 33.9803C19.5503 37.3147 18.2517 40.6159 17.266 43.7603C16.6195 43.5791 15.9777 43.3823 15.341 43.1701ZM19.1124 18.0399C17.6466 10.707 18.6201 5.1754 21.0701 3.78707C23.6794 2.30837 29.4496 4.41667 35.5314 9.70277C35.928 10.0483 36.3182 10.4007 36.7017 10.7601C34.4355 13.1421 32.1963 15.8541 30.0571 18.8091C26.3887 19.1419 22.8772 19.6764 19.6487 20.3925C19.4498 19.6129 19.271 18.8283 19.1124 18.0399ZM52.7582 26.1728C51.9956 24.8835 51.2048 23.6103 50.3862 22.3544C52.8749 22.6624 55.2593 23.0713 57.4985 23.5712C56.8264 25.6804 55.9885 27.8853 55.0022 30.146C54.2813 28.8071 53.5331 27.4824 52.7582 26.1728ZM39.0375 13.0914C40.5743 14.7214 42.1136 16.5409 43.6276 18.5153C40.5563 18.3734 37.48 18.3728 34.4087 18.5135C35.9242 16.5574 37.4766 14.7401 39.0375 13.0914ZM25.2287 26.1949C24.4635 27.494 23.7293 28.8104 23.0268 30.143C22.0566 27.8904 21.2264 25.6753 20.5484 23.5363C22.7739 23.049 25.1471 22.6505 27.6199 22.3481C26.7922 23.6118 25.9949 24.8946 25.2287 26.1949ZM27.6909 45.6858C25.1361 45.4067 22.7273 45.0288 20.5024 44.5546C21.191 42.3774 22.0396 40.1152 23.0307 37.8142C23.736 39.1479 24.4733 40.4651 25.2418 41.7648C26.0322 43.1009 26.8506 44.4096 27.6909 45.6858ZM39.1295 54.9404C37.55 53.2726 35.9748 51.4273 34.4364 49.4428C35.93 49.5001 37.4525 49.5293 39 49.5293C40.5899 49.5293 42.1614 49.4944 43.7083 49.427C42.1895 51.4473 40.656 53.2953 39.1295 54.9404ZM55.0336 37.6967C56.0762 40.023 56.9549 42.2733 57.6527 44.4132C55.3913 44.9184 52.9495 45.3252 50.3767 45.6274C51.2011 44.348 51.9995 43.0528 52.7713 41.7424C53.5559 40.4104 54.3102 39.0615 55.0336 37.6967ZM49.885 40.1128C48.7034 42.1219 47.4555 44.0928 46.1431 46.0225C43.7658 46.1873 41.3833 46.2692 39 46.268C36.5726 46.268 34.2115 46.194 31.938 46.0497C30.5913 44.1244 29.3195 42.15 28.1254 40.1307C26.9369 38.122 25.827 36.0699 24.7976 33.9788C25.8244 31.8871 26.9312 29.8341 28.1156 27.8239L28.1153 27.8242C29.2994 25.8135 30.561 23.8475 31.8974 21.9305C34.217 21.7588 36.5957 21.6693 38.9997 21.6693C41.4146 21.6693 43.7967 21.7597 46.1157 21.9326C47.4386 23.8467 48.6922 25.8059 49.874 27.8066C51.0624 29.8123 52.1838 31.8554 53.2365 33.9325C52.1946 36.0309 51.0767 38.0923 49.885 40.1128ZM56.7587 3.68984C59.3705 5.16437 60.3863 11.1105 58.7453 18.9081C58.6405 19.4056 58.5229 19.9123 58.3949 20.4262C55.1585 19.6949 51.6445 19.1512 47.9654 18.8133C45.8223 15.8258 43.6014 13.1096 41.372 10.7583C41.9563 10.207 42.5545 9.66995 43.166 9.14774C48.9246 4.24249 54.3066 2.30568 56.7587 3.68984ZM39 27.083C42.8467 27.083 45.9652 30.1356 45.9652 33.9009C45.9652 37.6663 42.8467 40.7188 39 40.7188C35.1533 40.7188 32.0348 37.6663 32.0348 33.9009C32.0348 30.1356 35.1533 27.083 39 27.083Z" fill="#00D8FF"/>
</g>
<defs>
<clipPath id="clip0_321_131">
<rect width="78" height="68" fill="white"/>
</clipPath>
</defs>
</svg>
