<svg width="95" height="95" viewBox="0 0 95 95" fill="none" xmlns="http://www.w3.org/2000/svg">
<path d="M79.803 33.342C79.6674 34.1613 79.3054 34.9263 78.758 35.5508L78.4195 35.334C78.6567 34.8187 78.834 34.2778 78.948 33.722L78.853 33.5736C78.7312 33.5736 78.5561 33.912 78.3661 34.5622H78.1909C78.1787 34.4533 78.1465 34.3476 78.0959 34.2504H78.0158C76.4156 38.7036 75.6972 40.7817 74.2187 44.2165C73.9486 45.1072 73.717 45.5851 73.5152 45.6801C73.5155 45.7014 73.5206 45.7224 73.5301 45.7415C73.5396 45.7606 73.5532 45.7773 73.57 45.7904C73.5868 45.8035 73.6064 45.8126 73.6272 45.8172C73.648 45.8217 73.6696 45.8216 73.6903 45.8167C73.7229 46.2615 73.6194 46.7057 73.3934 47.0903C73.0822 48.2265 72.622 49.3166 72.0248 50.3322L72.1733 51.2673C72.1783 51.2885 72.1781 51.3105 72.1727 51.3316C72.1673 51.3526 72.1568 51.3721 72.1422 51.3882C72.1275 51.4042 72.1092 51.4165 72.0888 51.4239C72.0683 51.4313 72.0464 51.4336 72.0248 51.4306H71.8616C71.8338 51.1733 71.7349 51.0516 71.5647 51.0654H71.4845C71.266 51.4175 71.1056 51.8024 71.0095 52.2054H71.1728C71.2656 52.1595 71.343 52.0877 71.3957 51.9986C71.4484 51.9096 71.4741 51.8071 71.4697 51.7037L71.7962 51.677L71.9714 51.7453C71.8458 51.9038 71.774 52.0983 71.7666 52.3004L71.8467 52.4489L71.6419 52.9357V53.0159C71.8593 53.0068 72.0738 53.0683 72.2534 53.1911C72.4278 53.1647 72.5941 53.0998 72.7403 53.0011C72.9303 53.0011 73.6072 52.9743 74.8006 52.9743L75.3944 52.7695C76.1277 52.7695 76.2345 52.7695 76.8787 52.7279L77.137 52.7012L77.2736 52.6062V52.6864C77.6806 52.6393 78.0924 52.6574 78.4937 52.7398V52.82L78.1286 52.8467V52.9951C78.2357 52.9861 78.3383 52.9481 78.4255 52.8853C78.5205 52.8813 78.5749 52.9308 78.5887 53.0337C78.4186 53.0558 78.2508 53.0925 78.087 53.1436L77.9237 53.0901C77.8066 53.1372 77.6839 53.1691 77.5586 53.1851L77.3003 53.1317C77.3024 53.1492 77.2982 53.1669 77.2884 53.1816C77.2786 53.1963 77.2639 53.207 77.2469 53.2118C77.2469 53.3068 77.3003 53.3603 77.3953 53.3484L77.707 53.3217L77.5705 53.2683C77.5705 53.3118 77.5972 53.3346 77.6506 53.3365L78.9925 53.2148L79.5625 53.1406C79.5621 53.1497 79.5635 53.1587 79.5668 53.1672C79.5701 53.1757 79.5751 53.1834 79.5816 53.1898C79.588 53.1962 79.5957 53.2013 79.6042 53.2045C79.6126 53.2078 79.6217 53.2093 79.6308 53.2089L79.8742 53.1139L80.3344 53.0723C80.6995 53.0456 80.6877 53.0189 81.4595 52.8972C81.4595 52.8556 81.4595 52.8289 81.513 52.8289V52.8972C82.076 52.8532 82.6315 52.7395 83.1666 52.5587L83.0983 52.3954C82.8935 52.4401 82.6845 52.463 82.4748 52.4637L81.3497 52.5172V52.437L81.9731 52.3568H82.2047L82.3264 52.2618V52.342C84.1167 52.3225 85.8977 52.0811 87.6286 51.6236C87.8453 51.6236 87.8334 51.4187 87.967 51.0298C87.8911 51.0337 87.8157 51.0151 87.7503 50.9764C87.3682 51.0733 86.9773 51.132 86.5836 51.1515C86.5302 51.1555 86.4896 51.106 86.4619 51.0031V50.9348L87.0853 50.9615C87.3252 50.9452 87.5574 50.8708 87.7622 50.7448C87.8305 50.7864 87.7087 50.825 87.7622 50.8131H87.872C87.9373 50.8131 87.969 50.7587 87.967 50.6498L87.8987 50.5014C87.5632 50.5037 87.2331 50.5872 86.9369 50.7448V50.6647L86.4203 50.7181C86.4203 50.5548 86.3669 50.4865 86.2986 50.4865L86.0284 50.5132C85.7167 50.54 85.5683 50.5133 85.4169 50.6498C85.4169 50.5964 85.3902 50.5697 85.3634 50.5697L85.0666 50.5964L84.8914 50.6914C84.8914 50.6379 84.8647 50.6112 84.838 50.6112L84.7281 50.7062V50.6261L84.3125 50.5875H84.2175V50.7359L84.4342 50.7893H84.6242C84.6951 50.8278 84.7752 50.8463 84.8558 50.8428L85.0309 50.7626V50.8309C84.4949 50.965 83.9517 51.0691 83.4041 51.1426C83.3578 51.1038 83.3009 51.08 83.2408 51.0743C83.1725 51.1426 83.3209 51.0743 83.2823 51.0743C83.2616 51.0792 83.24 51.0794 83.2192 51.0748C83.1984 51.0703 83.1789 51.0611 83.1621 51.048C83.1452 51.0349 83.1316 51.0182 83.1221 50.9991C83.1126 50.9801 83.1075 50.9591 83.1072 50.9378L83.4456 50.8962L83.6772 50.9645C83.9473 50.8279 83.9741 50.7745 84.1106 50.7597V50.6112C83.5297 50.7241 82.939 50.7788 82.3472 50.7745H82.2937V50.6261C83.8256 50.4361 83.312 50.5459 83.8256 50.3945C83.8256 50.4479 83.8523 50.4747 83.8791 50.4747C83.9067 50.4448 83.9403 50.421 83.9775 50.4046C84.0148 50.3883 84.0551 50.3798 84.0958 50.3797H84.2056C84.8082 50.4035 85.4104 50.3252 85.9869 50.1481V50.2164L86.162 50.1362H86.3253C86.3253 49.9729 86.5569 49.9611 86.6222 49.9462V49.7829C84.7637 50.1629 84.2769 50.0531 83.7603 50.2045V50.1362C83.5564 50.1854 83.3462 50.2034 83.1369 50.1897C83.0789 50.2056 83.0272 50.2387 82.9884 50.2847C82.9865 50.2312 82.9637 50.2045 82.9202 50.2045C82.8548 50.2045 82.8786 50.2312 82.8103 50.2995L82.9202 50.2045L81.3081 50.4628C81.3085 50.4537 81.3071 50.4446 81.3038 50.4362C81.3005 50.4277 81.2955 50.42 81.2891 50.4136C81.2826 50.4071 81.2749 50.4021 81.2665 50.3988C81.258 50.3956 81.2489 50.3941 81.2398 50.3945C80.6882 50.5589 80.1193 50.6585 79.5447 50.6914C79.4701 50.6977 79.3989 50.7255 79.3398 50.7715C79.3398 50.728 79.3131 50.7052 79.2597 50.7033L78.5828 50.7567L78.1345 50.8665C78.1345 50.823 78.1078 50.8002 78.0544 50.7983C77.8415 50.8574 77.624 50.8981 77.4042 50.92C77.2944 50.92 77.4577 50.8933 77.3775 50.8517L77.1875 50.9259H76.4156C75.2281 51.0743 75.3587 51.0892 75.2281 51.1011L74.7798 51.0743C74.7798 51.1159 74.7798 51.1426 74.7116 51.1545C74.2108 51.0872 73.9535 51.0061 73.9397 50.9111C74.008 50.4361 74.1148 50.1926 74.293 50.1659H74.3731L74.293 50.3292H74.3731C74.5364 50.249 74.6047 50.1659 74.6047 50.0858V49.9225H74.4414V49.774C74.427 49.6683 74.4413 49.5606 74.483 49.4623L74.8481 48.8686V49.017H75.0233V48.8686L74.9283 48.7201C75.0117 48.6311 75.1206 48.5699 75.24 48.545V48.4648H75.0084V48.2333C75.3058 47.6996 75.5333 47.1298 75.6853 46.5381L75.8486 46.6064C75.9584 46.6064 76.0119 46.5381 75.997 46.4312H75.8337V46.3718C75.8203 46.2601 75.8388 46.1469 75.8872 46.0453C76.0014 45.9441 76.0912 45.8183 76.1498 45.6774C76.2085 45.5365 76.2344 45.3842 76.2256 45.2318C76.2365 45.2304 76.2476 45.2314 76.258 45.2349C76.2684 45.2385 76.2778 45.2443 76.2856 45.2521C76.2933 45.2598 76.2992 45.2693 76.3027 45.2797C76.3062 45.2901 76.3072 45.3011 76.3058 45.312C76.5215 45.1933 76.6887 44.8637 76.8075 44.3234C77.4431 42.9835 77.9866 41.6018 78.4344 40.1879C79.104 38.6143 79.6017 36.973 79.9187 35.2925H79.7555C79.767 35.401 79.7431 35.5104 79.6872 35.6042C79.605 35.5686 79.5179 35.5456 79.4289 35.5359V35.4676C79.4344 35.053 79.5774 34.652 79.8356 34.3276H79.8594L79.9959 34.8561H80.1592C80.1592 34.8145 80.2008 34.6126 80.2809 34.2178C80.279 34.1386 80.2156 34.0931 80.0909 34.0812L79.9425 34.1762V33.3093L79.7941 33.3361L79.803 33.342ZM77.8495 35.6873H77.9297C77.808 35.904 77.713 36.0258 77.618 36.0406V35.809C77.7032 35.7862 77.7823 35.7446 77.8495 35.6873ZM77.1727 37.3142C77.3389 36.6492 77.4972 36.2692 77.6477 36.1742V36.2543C77.5675 36.8778 77.4309 37.1895 77.2409 37.2162L77.2677 37.6081C77.1442 37.7412 77.0717 37.9136 77.0628 38.095H76.9827L76.9411 37.5517C77.0212 37.5517 77.1044 37.4567 77.1578 37.2934L77.1727 37.3142ZM76.9144 38.2048C76.8905 38.4256 76.8313 38.6411 76.7392 38.8431H76.6591V38.6115C76.7362 38.3443 76.8312 38.2078 76.9144 38.1959V38.2048ZM72.4612 48.0611L72.5414 48.2095C72.6641 48.1956 72.7185 48.1412 72.7047 48.0462V47.9661H72.6245L72.4761 48.0462L72.4612 48.0611ZM74.6047 49.8423V49.9106C74.7264 49.9106 74.8481 49.679 74.958 49.2604L74.7947 49.207C74.7076 49.412 74.6439 49.6261 74.6047 49.8453V49.8423ZM88.3262 50.3173V50.3856L88.1897 50.5489L88.448 50.4539H88.4687V50.3054H88.4153L88.3203 50.3856C88.3203 50.344 88.6172 50.2639 88.3886 50.2223C88.3292 50.2758 88.4391 50.2876 88.3173 50.3025L88.3262 50.3173ZM88.8547 50.8042L89.2198 50.7775C89.2198 50.6825 88.9764 50.6558 88.8933 50.6558H88.8398V50.8042H88.8547ZM82.3739 50.9408L82.4837 51.0773C82.4837 51.0358 82.4837 51.009 82.5372 51.009L82.6173 51.1575L82.2789 51.1159C82.2344 50.9942 82.2819 50.9407 82.365 50.9259L82.3739 50.9408ZM81.2636 51.0625C81.289 51.0575 81.3152 51.0584 81.3403 51.065C81.3653 51.0716 81.3886 51.0838 81.4083 51.1006C81.4279 51.1175 81.4436 51.1385 81.454 51.1623C81.4644 51.186 81.4694 51.2117 81.4684 51.2376H81.0766V51.1693C81.1425 51.1478 81.2024 51.1112 81.2517 51.0625H81.2636ZM82.1305 51.0209V51.1011L81.8187 51.1278V51.0476L82.1305 51.0209ZM78.9836 51.3475C78.9836 51.391 79.0103 51.4138 79.0637 51.4158C79.5655 51.3208 79.512 51.3059 79.7555 51.2792C79.8346 51.2772 79.8802 51.3227 79.892 51.4158L78.4967 51.5375L78.6333 51.6057V51.5256L78.1048 51.5672V51.487L78.5798 51.4454L79.0133 51.3504L78.9836 51.3475ZM80.4205 51.2257V51.294C80.3789 51.294 80.557 51.294 80.4739 51.3742C80.2993 51.3446 80.1225 51.3307 79.9455 51.3326V51.2643L80.4205 51.2257ZM80.7737 51.1842V51.2525L80.5155 51.2792V51.2109L80.7737 51.1842ZM72.0961 52.5676V52.7992C72.0159 52.7992 71.9477 52.7576 71.9209 52.6508V52.5825H72.0842L72.0961 52.5676ZM83.7009 52.3628V52.5112L83.9711 52.4845L83.8612 52.4162V52.4964L84.1314 52.3865C85.9898 52.1817 86.2095 52.2648 86.1798 52.0481V51.9798C85.3606 52.2004 84.5191 52.3279 83.6712 52.3598L83.7009 52.3628ZM86.6014 52.1045L86.8716 52.1579V52.0095L86.6014 51.9561V52.1045ZM78.5858 52.6329C78.6659 52.6745 78.4908 52.7131 78.5858 52.7012L79.5358 52.6211V52.7012C79.3611 52.7002 79.1888 52.742 79.0341 52.8229C79.0355 52.8121 79.0345 52.801 79.031 52.7906C79.0275 52.7802 79.0216 52.7708 79.0138 52.763C79.0061 52.7553 78.9966 52.7494 78.9862 52.7459C78.9758 52.7424 78.9648 52.7413 78.9539 52.7428L78.5472 52.7843V52.7042C78.657 52.7042 78.4937 52.7042 78.5739 52.6359L78.5858 52.6329ZM82.9795 52.5231L83.0597 52.6715C83.3714 52.6033 83.1962 52.6181 83.2764 52.5498C83.2764 52.6033 83.3031 52.63 83.3298 52.63H83.5466V52.4667H82.9766V52.5468L82.9795 52.5231ZM77.6091 53.1168H77.5556V52.9684H77.6091V53.1168ZM73.3667 53.6334V53.7136L75.8605 53.5087V53.3603L73.8684 53.5236L73.4291 53.4375L73.3667 53.6334ZM76.1455 53.485H76.1722V53.3365H76.1455V53.485ZM38.1633 40.375C37.1643 41.4668 36.2484 42.6318 35.4231 43.8603C34.7047 44.6054 34.3514 45.0478 34.393 45.2022C34.203 45.3209 34.1218 45.4476 34.1495 45.5822C34.1378 45.5862 34.1253 45.5876 34.113 45.5863C34.1007 45.5849 34.0888 45.5808 34.0783 45.5743C34.0678 45.5677 34.0588 45.5589 34.0521 45.5484C34.0455 45.538 34.0412 45.5262 34.0397 45.5139C33.8907 45.7603 33.692 45.973 33.4564 46.1386C33.2208 46.3042 32.9534 46.419 32.6711 46.4758L32.0328 46.6242C31.9527 46.6242 31.9111 46.7043 31.9111 46.8142V46.8943L32.1545 46.8409V46.9092L31.6112 47.114L30.6494 47.3308L30.1477 47.3575C30.0794 47.4258 30.5395 47.3575 30.3644 47.399L29.7409 47.5475C29.3609 47.6425 29.1472 47.6009 29.1175 47.4525H29.0492C29.0888 47.6029 29.0522 47.6929 28.9394 47.7226L29.0611 47.6959L29.0077 47.4643L27.8677 47.7345L27.9894 47.7879C27.9894 47.7345 27.9211 47.7197 27.8142 47.7464L27.6658 47.8681L27.4906 47.8265C27.3975 47.887 27.2979 47.9367 27.1937 47.975L27.0186 47.9334C26.5436 48.2036 26.8969 48.2036 26.8702 48.2036L26.9117 48.352L27.1819 48.2837L27.6034 48.257L27.5619 48.4322C26.0152 48.8389 27.1403 48.6073 26.7217 48.7023H26.6416L26.6831 48.8508L26.9266 48.7973V48.8775C26.7313 48.8997 26.5446 48.9701 26.3833 49.0823V49.0022C25.8858 49.1669 25.4569 49.4915 25.1631 49.9254C25.2314 50.2223 24.3497 50.5904 28.497 49.6286C28.7939 49.6286 28.9453 49.6286 28.9839 49.6018C28.9839 49.5484 28.9839 49.5217 29.0522 49.5068C29.5123 49.4534 29.2956 49.5336 29.5806 49.4653L30.4712 49.2604L30.2812 49.3703C30.2812 49.3287 30.2812 49.302 30.3347 49.2901C30.4459 49.3173 30.5619 49.3173 30.6731 49.2901L30.7266 49.5217L27.2234 55.1415L26.4219 56.1093L26.0419 57.3978H26.1102L26.4902 57.2345L26.3684 57.7362L26.41 57.8847L26.5198 58.0212C26.4664 58.0212 26.4516 58.0628 26.4664 58.1162V58.1964L26.6297 58.1548C26.8593 57.949 26.9582 57.7639 26.9266 57.5997C27.0915 57.6338 27.26 57.6478 27.4283 57.6412V57.7214C27.2798 57.7629 27.1987 57.8847 27.1848 58.0865V58.1667H27.265C28.5534 56.7714 31.6855 51.9828 34.2059 48.729C34.1248 48.3767 35.4399 47.8889 38.1514 47.2654H38.2316C38.2157 48.3252 38.0044 49.3729 37.6081 50.3559C37.3993 50.8771 37.2403 51.4168 37.1331 51.9679C36.8634 52.6569 36.6587 53.3695 36.5216 54.0965L35.625 57.2167C34.9896 58.8668 34.5124 60.5736 34.2 62.314C34.2804 62.3077 34.3612 62.3178 34.4375 62.3437L34.5741 62.222C34.576 62.2715 34.6127 62.2942 34.6839 62.2903L34.6305 62.0587H35.052C35.1767 62.029 35.2806 61.8707 35.3637 61.5837C35.3637 61.1622 35.432 60.9336 35.622 60.8801C35.7196 60.3526 35.8791 59.8384 36.097 59.3482C36.2011 58.7528 36.3838 58.1738 36.6403 57.6264C37.0025 56.3221 37.2687 55.6492 37.4389 55.6076L37.4805 55.7709L37.2222 56.4626C36.8745 58.1185 36.4031 59.746 35.812 61.3314L35.9486 61.9251H36.0287C37.9726 57.1489 39.6253 52.2594 40.9777 47.2833C41.0039 46.9806 41.1011 46.6885 41.2616 46.4305C41.422 46.1726 41.6411 45.9562 41.9009 45.7989L41.7792 45.6772V45.6089C41.9822 45.5771 42.1662 45.4714 42.2958 45.312C42.2819 45.2586 42.0652 45.1774 41.6456 45.0686L42.9192 39.6179C43.2642 38.2022 43.522 36.7665 43.6911 35.3192V35.239C43.4048 35.053 43.1527 34.819 42.9459 34.5473V34.1525H42.8777C42.0909 35.34 40.5175 37.4181 38.1989 40.3868L38.1633 40.375ZM39.9653 41.61C39.9842 42.1553 39.8775 42.6977 39.6536 43.1953C39.5705 44.169 39.2221 44.7291 38.6086 44.8756V44.7954L38.0653 45.0003L37.8219 45.0537C37.7114 45.0866 37.5939 45.0866 37.4834 45.0537L37.43 44.837C38.1456 43.6981 38.9308 42.6045 39.7812 41.5625L39.9712 41.5892L39.9653 41.61ZM38.7184 45.0003L38.8936 44.9587L38.9352 45.1072C38.0802 45.3625 37.6052 45.503 37.5102 45.5287C37.4235 45.5559 37.3443 45.6027 37.2786 45.6653C37.2786 45.6118 37.1569 45.6118 36.9402 45.6653C36.9006 45.5168 37.4943 45.3001 38.7214 45.0151L38.7184 45.0003ZM30.2991 47.2773L30.4891 47.2358L30.4475 47.0725L30.2575 47.114L30.2991 47.2773ZM32.7809 46.6272L32.8225 46.7756L32.4158 46.8023V46.7222L32.7958 46.6272H32.7809ZM28.0309 48.1858V48.2659L27.7727 48.3193V48.2392L28.0309 48.1858ZM27.5559 49.1743V49.2426L27.2442 49.3109L27.2027 49.1625H27.5411L27.5559 49.1743ZM28.3011 49.0111V49.0793L27.7311 49.2159V49.1476L28.3011 49.0111ZM29.2897 48.8478V48.9279L27.8053 49.2664L27.7637 49.1179C28.6306 48.9695 28.5356 49.0229 29.2808 48.8478H29.2897ZM36.7591 47.1111L36.8808 47.2476C36.7431 47.2715 36.6129 47.3274 36.5008 47.4109L36.3256 47.3842C36.0961 47.4759 35.8611 47.5533 35.622 47.6158L35.4587 47.6573C35.4381 47.6646 35.4162 47.6675 35.3944 47.6658C35.3726 47.6641 35.3514 47.6579 35.3321 47.6476C35.3128 47.6372 35.2959 47.623 35.2824 47.6058C35.269 47.5885 35.2593 47.5687 35.2539 47.5475L36.3791 47.2892L36.7591 47.1111ZM37.5577 46.9359L38.3562 46.7459V46.8261C38.0049 46.8936 37.663 47.0033 37.338 47.1526V47.0725C37.4244 47.0422 37.5026 46.9925 37.5666 46.927L37.5577 46.9359ZM29.1502 49.2129L29.5302 49.1328L29.5717 49.2812C29.4084 49.3228 29.5302 49.3228 29.3283 49.4178C29.0121 49.4248 28.6981 49.4707 28.3931 49.5543V49.4742L29.1502 49.2129ZM30.1803 49.0378C30.2902 49.0111 30.3555 49.0378 30.3703 49.1595L30.1387 49.2129C30.0437 49.2406 29.9755 49.2001 29.9339 49.0912L30.1773 49.0378H30.1803ZM25.9498 57.5937V57.6739C26.0597 57.6472 26.0983 57.5937 26.0716 57.4839V57.4037C26.0503 57.4067 26.03 57.4142 26.0119 57.4257C25.9938 57.4373 25.9785 57.4526 25.9669 57.4707C25.9554 57.4887 25.9478 57.5091 25.9449 57.5303C25.9419 57.5516 25.9436 57.5732 25.9498 57.5937ZM26.2764 58.9504C26.2788 58.9716 26.2862 58.992 26.2979 59.0098C26.3096 59.0277 26.3253 59.0425 26.3437 59.0532C26.3622 59.0639 26.3829 59.0701 26.4042 59.0713C26.4255 59.0725 26.4468 59.0688 26.4664 59.0603C26.5762 59.0336 26.6148 58.9801 26.5881 58.8703V58.7901L26.4248 58.8317L26.2883 58.9534L26.2764 58.9504ZM71.6805 35.4973L72.292 35.3251C72.5355 35.3528 72.6572 35.4023 72.6572 35.4736C72.9061 35.385 73.1656 35.3301 73.4291 35.3103V35.2153L72.8056 35.1886L71.5855 35.3934L71.057 35.3518C71.057 35.3934 71.1105 35.4498 71.2173 35.5211L71.6805 35.4973ZM34.9273 61.275C34.9469 61.2665 34.9682 61.2627 34.9895 61.2639C35.0108 61.2652 35.0315 61.2714 35.05 61.282C35.0685 61.2927 35.0842 61.3076 35.0959 61.3254C35.1076 61.3433 35.1149 61.3636 35.1173 61.3848V61.465L34.8056 61.5332C34.8224 61.453 34.8224 61.3701 34.8056 61.2898H34.9006L34.9273 61.275ZM47.4822 36.192C46.71 36.7398 45.9093 37.2462 45.0834 37.709V37.8575C45.1719 37.8398 45.2551 37.8023 45.3269 37.7476C45.3476 37.7427 45.3692 37.7426 45.39 37.7471C45.4108 37.7517 45.4304 37.7608 45.4472 37.774C45.464 37.7871 45.4776 37.8038 45.4871 37.8228C45.4966 37.8419 45.5017 37.8629 45.502 37.8842L45.6505 37.804H45.7187V37.8723C45.2162 38.3705 44.6561 38.807 44.0503 39.1726L44.1305 39.3359H44.0622L43.887 39.2676C43.887 39.3211 43.8187 39.3626 43.6555 39.3775V39.4458L43.8306 39.6625C43.7405 39.6596 43.6521 39.6363 43.5723 39.5942C43.3478 39.641 43.136 39.7355 42.9511 39.8712C42.7662 40.0069 42.6126 40.1807 42.5006 40.3809L42.5808 40.5293C42.7363 40.3554 42.9199 40.2089 43.1241 40.0959V40.3275C43.0356 40.3451 42.9524 40.3827 42.8806 40.4373L43.0855 40.7342C43.4394 40.3385 43.8448 39.992 44.2908 39.704C44.5075 39.7723 44.6292 39.8406 44.6292 39.9089H44.7925C45.8817 39.0826 47.0938 38.4325 48.3847 37.9822V38.1306C48.167 38.4532 48.0175 38.6204 47.9364 38.6323C47.9504 38.7361 47.9825 38.8366 48.0314 38.9292C47.5987 40.3224 47.0638 41.6818 46.4312 42.9964C44.6293 47.4309 42.547 51.7463 40.1969 55.9164C40.2116 56.0022 40.2496 56.0823 40.3067 56.1479C40.5864 56.1036 40.8542 56.0026 41.0934 55.8511H41.1617V55.9995H41.3369L41.4853 55.9193C41.4853 55.9609 41.5387 55.9876 41.6486 55.9728V56.1361C41.6241 56.3888 41.5352 56.6311 41.3903 56.8397C41.1314 57.2031 40.9431 57.612 40.8352 58.045V58.1251H40.9984C41.6092 57.4582 42.1248 56.7099 42.5303 55.9015C44.0811 55.4811 45.5881 54.9134 47.0309 54.2064C47.8862 54.179 48.7135 53.8957 49.4059 53.3929V53.3128L48.9992 53.4345H48.9191V53.3543C49.4821 53.3158 50.0267 53.1383 50.5044 52.8378C51.9887 51.6859 53.1189 50.8725 53.8947 50.3975C56.2548 48.6608 57.3652 47.0072 57.2286 45.407C56.8035 44.6858 56.2788 44.0282 55.67 43.4536C55.6561 43.2359 56.0084 42.9241 56.7269 42.5184L58.7872 40.7372C59.3303 39.8879 59.6131 38.8982 59.6006 37.8901L59.5739 37.5933C59.4947 36.6868 58.8307 35.9505 57.5819 35.3845C56.3463 34.7698 54.973 34.4845 53.5948 34.5562C51.4641 34.8193 49.3818 35.3851 47.4109 36.2365L47.4822 36.192ZM58.52 36.3018L58.4398 36.4651L56.1628 35.5033C57.6947 35.5715 58.4784 35.8298 58.52 36.3018ZM49.2812 42.655C49.4435 41.8019 49.6197 41.323 49.8097 41.2181L51.5316 37.3587C51.5316 37.1272 51.87 36.9372 52.6152 36.8036L52.8586 36.7768V37.0084C53.5909 36.8857 54.0471 36.8174 54.2272 36.8036C55.5839 36.6818 56.2875 36.9668 56.3409 37.617H56.5042L56.4775 37.2518H56.6408C56.8027 37.3196 56.9448 37.4274 57.0538 37.5649C57.1628 37.7025 57.2352 37.8654 57.2642 38.0386C57.2477 38.3382 57.1329 38.6241 56.9377 38.852C56.8308 38.854 56.7724 38.7817 56.7625 38.6353H56.5992L56.5458 39.0954C55.8531 40.1385 55.3583 40.6718 55.0614 40.6956C54.7903 41.0756 54.6141 41.2656 54.533 41.2656C54.0018 41.7752 53.4094 42.2169 52.7695 42.5808C51.545 42.9403 50.3533 43.4031 49.207 43.9642C49.1043 43.9198 48.9911 43.9054 48.8805 43.9226V43.7742C48.8942 43.3727 49.031 42.9851 49.2723 42.6639L49.2812 42.655ZM58.7456 37.905V38.0683C58.6684 38.0683 58.5101 37.8238 58.2706 37.335V37.1865C58.4072 37.1776 58.5705 37.4211 58.7308 37.9109L58.7456 37.905ZM43.7237 39.7486V39.8287C43.6366 39.8419 43.5534 39.8744 43.4803 39.9237H43.412V39.7753L43.7237 39.7486ZM48.6875 39.6328V39.8643C48.6073 39.8643 48.5123 39.9861 48.3906 40.1909V40.0425C48.4968 39.9296 48.5679 39.7883 48.5955 39.6358L48.6875 39.6328ZM47.9156 41.2329L47.9423 41.5298H47.8622L47.8355 41.2329H47.9156ZM47.7256 41.7881C47.7118 42.0454 47.6435 42.181 47.5208 42.1948H47.4406C47.5199 42.074 47.5622 41.9326 47.5623 41.7881H47.7256ZM47.3723 42.5867V42.6668L47.2358 42.9103H47.0725V42.8301C47.2358 42.8301 47.3159 42.7351 47.3041 42.5718L47.3723 42.5867ZM47.0339 43.3051L46.9805 43.697H46.9062L46.8795 43.3051H47.0339ZM55.385 43.602L55.7234 43.8068C55.7285 43.828 55.7283 43.8501 55.7229 43.8711C55.7174 43.8922 55.707 43.9116 55.6923 43.9277C55.6777 43.9438 55.6594 43.956 55.6389 43.9634C55.6185 43.9708 55.5965 43.9731 55.575 43.9701C55.4775 43.8955 55.3592 43.853 55.2366 43.8484V43.6168H55.385V43.602ZM48.8537 44.4689V44.6173L48.5272 44.644V44.4956L48.8537 44.4689ZM54.1292 45.024C54.3608 45.1339 54.4677 45.2289 54.4825 45.3209V45.3892C54.3601 45.3901 54.2395 45.3594 54.1324 45.3001C54.0252 45.2408 53.9352 45.155 53.8709 45.0508L54.1292 45.024ZM47.3367 46.6925C48.8421 46.4478 50.3097 46.0108 51.7037 45.3922L52.2055 45.3506C52.6012 45.2837 53.0067 45.3021 53.3947 45.4045C53.7828 45.5069 54.1445 45.691 54.4558 45.9443L54.4825 46.2412C54.1164 47.2981 53.7096 47.9215 53.2623 48.1115L51.2139 49.7651C50.4221 50.333 49.5885 50.8402 48.7202 51.2822C47.3021 52.1758 45.7704 52.8748 44.1661 53.3603H44.0859C44.1394 53.0753 45.2279 50.8467 47.3516 46.6747L47.3367 46.6925ZM49.5455 45.8018V45.882L49.2189 45.9087V45.8286L49.5455 45.8018ZM56.9347 45.4634L56.9881 46.0868C56.908 46.2353 56.8397 46.3184 56.7566 46.3303L56.6616 45.2734C56.8357 45.3288 56.9248 45.3922 56.9287 45.4634H56.9347ZM44.4155 50.7656C44.3056 51.2822 44.1987 51.5523 44.0889 51.5523V51.484C44.0767 51.3463 44.1004 51.2077 44.1576 51.0818C44.2149 50.9559 44.3037 50.847 44.4155 50.7656ZM46.4639 53.6661C48.1955 52.9931 49.8465 52.1288 51.3861 51.0892V51.2376C51.3861 51.3059 51.1694 51.5078 50.6944 51.8314C49.8493 52.2074 49.0413 52.6616 48.2808 53.1881C46.8004 53.7066 46.0681 54.0273 46.0839 54.15C45.1991 54.4782 44.3347 54.8589 43.4952 55.29C43.3458 55.291 43.1994 55.2488 43.0736 55.1683C43.0623 55.0388 43.0899 54.9089 43.1528 54.7952C43.2157 54.6815 43.3112 54.5891 43.4269 54.53C43.648 54.5127 43.8701 54.5451 44.077 54.625C44.4885 54.4478 44.9147 54.3067 45.3506 54.2034V54.055L44.8489 54.0965C45.288 53.8159 45.7621 53.5943 46.2591 53.4375L46.5025 53.4107V53.479C46.0849 53.5186 45.8504 53.6453 45.7989 53.859C45.7992 53.8803 45.8043 53.9013 45.8138 53.9204C45.8233 53.9395 45.837 53.9562 45.8538 53.9693C45.8706 53.9824 45.8901 53.9915 45.9109 53.9961C45.9317 54.0007 45.9533 54.0005 45.9741 53.9956C46.3125 53.8323 46.4609 53.6987 46.4609 53.669L46.4639 53.6661ZM43.9286 51.8076V51.8759C43.9345 51.8977 43.935 51.9206 43.93 51.9426C43.9251 51.9647 43.9149 51.9852 43.9003 52.0024C43.8857 52.0196 43.8672 52.0331 43.8462 52.0415C43.8253 52.05 43.8026 52.0533 43.7802 52.0511V51.9709C43.7802 51.9026 43.8336 51.8343 43.9434 51.8076H43.9286ZM47.788 52.8645C47.3977 52.9598 47.0263 53.1204 46.6895 53.3395H46.6094V53.1911C46.9924 53.1622 47.3529 52.9993 47.6277 52.7309C47.7375 52.7309 47.7909 52.7576 47.8028 52.8526L47.788 52.8645ZM43.8009 53.9748L44.0444 53.9481V54.0282C43.9572 54.0414 43.874 54.0739 43.8009 54.1233H43.6377C43.6377 54.0431 43.6792 53.9867 43.7861 53.96L43.8009 53.9748ZM42.1592 54.8833L42.3225 54.9515C42.2691 55.4265 42.1177 55.67 41.9009 55.6848C41.7455 55.6068 41.573 55.569 41.3992 55.575V55.3434C41.3992 55.2633 41.4408 55.2068 41.5477 55.1801C41.6545 55.1534 41.7109 55.2484 41.7228 55.3968C41.8483 55.215 41.9937 55.0477 42.1562 54.8981L42.1592 54.8833ZM15.5622 35.524C14.5521 36.2537 13.4971 36.919 12.4034 37.5161V37.7209C12.5141 37.7004 12.6199 37.6591 12.7152 37.5992C12.8517 37.5992 12.9319 37.6408 12.9319 37.7743L13.1486 37.6526H13.2584V37.7476C12.5927 38.4067 11.8513 38.9847 11.0497 39.4695L11.1714 39.6595H11.0616L10.83 39.5793C10.83 39.6476 10.735 39.6892 10.5183 39.7011V39.8109L10.7617 40.0811C10.6495 40.0791 10.5387 40.0559 10.4352 40.0128C10.1388 40.0754 9.85948 40.2012 9.61614 40.3815C9.37279 40.5619 9.17117 40.7925 9.025 41.0578L9.14672 41.2478C9.35181 41.0282 9.58904 40.841 9.85031 40.6926L9.87703 40.9895C9.76637 41.01 9.66059 41.0513 9.56531 41.1112L9.82359 41.4912C10.2974 40.9727 10.8397 40.5212 11.4356 40.1493C11.7325 40.2265 11.8819 40.3166 11.8839 40.4195H12.1006C13.5302 39.3283 15.122 38.4678 16.818 37.8693V38.0742C16.5251 38.5056 16.3271 38.7273 16.2242 38.7392C16.2418 38.8798 16.2927 39.0141 16.3727 39.1311C15.8131 40.9663 15.1062 42.7534 14.2589 44.4748C11.8915 50.3146 9.16191 56.0009 6.08594 61.5006C6.1082 61.6061 6.14945 61.7067 6.20766 61.7975C6.57763 61.7341 6.93223 61.6011 7.25266 61.4056H7.37437V61.6104H7.57922L7.80781 61.4531C7.80781 61.5214 7.88797 61.5481 8.02453 61.5332V61.7381C7.99845 62.0771 7.87586 62.4016 7.67125 62.6733C7.33617 63.1529 7.09261 63.6904 6.95281 64.2586V64.3536H7.15766C7.95996 63.4781 8.63913 62.4973 9.17641 61.4383C11.2235 60.8866 13.2121 60.1369 15.1139 59.1998C16.2426 59.1694 17.3352 58.7955 18.2459 58.1281V58.0182L17.7294 58.1667H17.6077V58.0568C18.3436 57.9958 19.0551 57.7641 19.6858 57.38C21.6491 55.8659 23.1335 54.7902 24.1389 54.1529C27.2442 51.8759 28.7078 49.679 28.5327 47.592C27.9716 46.6473 27.2823 45.7851 26.4842 45.03C26.4575 44.7331 26.9325 44.3383 27.8795 43.795L30.5781 41.42C31.2856 40.3006 31.6613 39.0036 31.6617 37.6793L31.6202 37.2726C31.5103 36.0673 30.6434 35.0906 28.9898 34.3454C27.3669 33.5383 25.5584 33.1776 23.75 33.3004C20.9383 33.6767 18.189 34.4244 15.5741 35.524H15.5622ZM30.1091 35.6992L30.0289 35.904L27.0156 34.6423C29.0225 34.7235 30.0527 35.0758 30.1061 35.6992H30.1091ZM17.9372 44.0503C18.141 42.938 18.3716 42.3056 18.6289 42.1533L20.8792 37.1064C20.8515 36.7937 21.3305 36.5542 22.3161 36.3879L22.6427 36.3612L22.6694 36.6581C23.6431 36.5116 24.2438 36.4255 24.4714 36.3998C26.2527 36.2474 27.1839 36.6086 27.265 37.4834H27.4698L27.4283 36.9668H27.645C27.8646 37.0551 28.0575 37.1989 28.2048 37.3842C28.3521 37.5695 28.4487 37.7899 28.4852 38.0237C28.471 38.4215 28.3066 38.7992 28.025 39.0806C27.8884 39.0806 27.8083 39.0004 27.7934 38.7837H27.5767L27.5233 39.3953C26.6168 40.751 25.9617 41.4437 25.558 41.4734C25.1918 41.9741 24.9612 42.2314 24.8662 42.2453C24.1589 42.9132 23.3757 43.4961 22.5328 43.982C20.9247 44.4545 19.3596 45.0623 17.8541 45.7989C17.7192 45.7347 17.5687 45.7109 17.4206 45.7306V45.5406C17.4338 45.0021 17.619 44.4819 17.9491 44.0562L17.9372 44.0503ZM30.4059 37.8159V38.0059C30.2961 38.0059 30.0942 37.6942 29.7944 37.044V36.854C29.9606 36.8125 30.1655 37.1509 30.3822 37.8159H30.4059ZM10.6103 40.2295V40.3245C10.4996 40.345 10.3939 40.3863 10.2986 40.4462H10.1887V40.2562L10.6103 40.2295ZM17.1356 40.0781L17.1623 40.375C17.0634 40.377 16.9328 40.5214 16.7705 40.8084V40.6036C16.9212 40.462 17.0249 40.2775 17.0673 40.0751L17.1356 40.0781ZM16.1322 42.1918L16.1737 42.5986H16.0639L16.0312 42.1948L16.1322 42.1918ZM15.8739 42.9251C15.8472 43.2636 15.7641 43.4417 15.577 43.4536H15.4672C15.5705 43.3 15.631 43.1217 15.6423 42.937L15.8739 42.9251ZM15.4256 43.982V44.077L15.2356 44.4036H15.0308V44.3086C15.0739 44.3146 15.1177 44.31 15.1586 44.2952C15.1995 44.2804 15.2362 44.2559 15.2655 44.2237C15.2947 44.1915 15.3157 44.1527 15.3265 44.1105C15.3373 44.0684 15.3377 44.0243 15.3277 43.982H15.4375H15.4256ZM14.9655 44.932L14.912 45.4337H14.8022L14.7606 44.932H14.9655ZM25.9498 45.2972L26.3981 45.5673C26.4044 45.5955 26.4043 45.6247 26.3976 45.6528C26.3909 45.6809 26.3779 45.7071 26.3596 45.7295C26.3413 45.7518 26.3181 45.7696 26.2919 45.7817C26.2656 45.7937 26.237 45.7996 26.2081 45.7989C26.0776 45.7005 25.9225 45.6399 25.7598 45.6237L25.7331 45.3268L25.9498 45.2972ZM17.3405 46.449V46.639L16.9189 46.6806V46.4906L17.3405 46.449ZM24.2814 47.1526C24.5783 47.2912 24.7317 47.4178 24.7416 47.5326V47.6276C24.5823 47.6301 24.4253 47.5898 24.287 47.5109C24.1486 47.4321 24.0339 47.3176 23.9548 47.1793L24.2814 47.1526ZM15.3336 49.3495C17.3189 49.0268 19.2552 48.4532 21.0959 47.6425L21.7342 47.589C22.2546 47.4951 22.7891 47.5143 23.3014 47.6454C23.8137 47.7766 24.2917 48.0166 24.703 48.349L24.7445 48.7558C24.2577 50.1659 23.7144 50.9793 23.1325 51.2376L20.422 53.3929C19.3829 54.1392 18.2916 54.8099 17.1564 55.3998C15.2925 56.5848 13.2761 57.5107 11.1625 58.1518H11.0408C11.1506 57.7718 12.5727 54.8447 15.3395 49.3376L15.3336 49.3495ZM18.2608 48.1976V48.2926L17.8273 48.3342V48.2392L18.2608 48.1976ZM27.9953 47.7642L28.0636 48.5628C27.9706 48.7805 27.8716 48.8893 27.7667 48.8893L27.645 47.4792C27.8884 47.5623 27.9953 47.6573 28.0102 47.7523L27.9953 47.7642ZM11.5098 54.7497C11.3733 55.4414 11.213 55.7947 11.0764 55.8065V55.7115C11.069 55.5271 11.1059 55.3435 11.1839 55.1762C11.2618 55.0089 11.3787 54.8626 11.5247 54.7497H11.5098ZM14.2203 58.5734C16.4939 57.6745 18.6662 56.5381 20.7011 55.1831V55.3731C20.7051 55.4523 20.4022 55.7145 19.7927 56.1598C18.6719 56.6422 17.6076 57.2465 16.6191 57.9618C14.6676 58.6387 13.7008 59.0593 13.7186 59.2236C12.5518 59.6597 11.4109 60.1622 10.3016 60.7287C10.1071 60.7254 9.91651 60.6745 9.74641 60.5803C9.73112 60.405 9.76807 60.2292 9.8526 60.0749C9.93714 59.9206 10.0655 59.7948 10.2214 59.7134C10.5172 59.6859 10.8152 59.7329 11.0883 59.85C11.629 59.6137 12.1919 59.4317 12.7686 59.3067V59.1018L12.1303 59.1553C12.7143 58.7957 13.338 58.5048 13.9887 58.2884L14.3153 58.2617V58.3567C13.772 58.3983 13.4603 58.5734 13.392 58.8584C13.3918 58.8852 13.3977 58.9117 13.4091 58.9359C13.4206 58.9601 13.4374 58.9814 13.4582 58.9982C13.479 59.015 13.5034 59.027 13.5294 59.0331C13.5555 59.0392 13.5826 59.0394 13.6087 59.0336C13.8254 58.9059 14.0249 58.7513 14.2025 58.5734H14.2203ZM10.8864 56.1093V56.2043C10.8927 56.2325 10.8926 56.2618 10.8859 56.2899C10.8792 56.318 10.8662 56.3442 10.8479 56.3665C10.8296 56.3888 10.8064 56.4067 10.7802 56.4187C10.7539 56.4307 10.7253 56.4366 10.6964 56.4359V56.3409C10.6931 56.3131 10.6955 56.285 10.7033 56.2581C10.7112 56.2313 10.7244 56.2063 10.7421 56.1847C10.7599 56.1631 10.7818 56.1453 10.8066 56.1323C10.8314 56.1194 10.8585 56.1115 10.8864 56.1093ZM15.957 57.4928C15.4408 57.6227 14.95 57.8385 14.5053 58.1311H14.3955V57.9262C14.8983 57.8904 15.371 57.6731 15.7255 57.3147C15.864 57.3147 15.9412 57.377 15.957 57.5017V57.4928ZM10.6875 58.9653L11.0141 58.9386V59.0484C10.9034 59.0689 10.7976 59.1102 10.7023 59.1701H10.4975C10.5064 59.0781 10.5598 59.0068 10.6875 58.9653ZM8.53219 60.1706L8.76375 60.2656C8.68359 60.8772 8.50547 61.1889 8.19375 61.2156C7.98561 61.1193 7.75799 61.0726 7.52875 61.079L7.50203 60.7822C7.50203 60.6604 7.55547 60.5922 7.70687 60.5506C7.85828 60.509 7.92359 60.6308 7.93844 60.8475C8.11361 60.6065 8.31253 60.3837 8.53219 60.1825V60.1706ZM68.6761 33.529L68.5009 33.4608L65.6123 33.909C65.4904 33.851 65.3549 33.8274 65.2205 33.8408C64.9598 33.878 64.702 33.9326 64.4486 34.004L63.0533 34.5978L63.1631 34.7729C63.2702 34.7639 63.3728 34.7259 63.46 34.6631L63.9469 34.7047L63.8786 35.1648C63.6823 35.2337 63.5069 35.3517 63.3692 35.5076C63.2314 35.6635 63.136 35.8521 63.0919 36.0554C62.413 36.3543 62.0736 36.571 62.0736 36.7056V36.7858H62.1834L62.3734 36.6908L62.5902 36.949L62.6169 37.3023C62.6307 37.4112 61.4828 39.8337 59.1731 44.5698C57.1801 49.1219 56.1311 51.6216 56.0262 52.0689C55.3494 52.2589 54.9427 52.5439 54.8387 52.909C54.8387 53.0308 55.0555 53.099 55.4503 53.1406V53.3158L55.2752 53.6126L55.3019 53.9659C55.3019 54.1559 55.8184 54.2925 56.7862 54.3993C56.7862 54.3311 56.813 54.3043 56.8812 54.2895C56.8662 54.7286 56.8025 55.1647 56.6913 55.5898H56.8011C57.102 55.2683 57.3075 54.8695 57.3948 54.4379H57.475C57.57 54.4379 57.6798 54.5478 57.8016 54.7912C57.2669 55.7224 56.8349 56.7089 56.5131 57.7333L56.623 57.9084H56.7328C57.1829 56.5888 57.7544 55.3137 58.4398 54.0995C59.6273 53.9926 61.6837 53.7848 64.6089 53.4761L64.7841 53.3662C64.786 53.4335 64.8227 53.4602 64.8939 53.4464H65.0839L65.2591 53.3365C65.261 53.4038 65.2977 53.4305 65.3689 53.4167L67.5777 53.2267C68.1674 53.1733 68.4475 52.9971 68.4178 52.6982C68.4178 52.6181 68.7562 52.5231 69.4628 52.4281C69.5636 52.4332 69.6634 52.4512 69.7597 52.4815C69.7597 52.4281 70.0981 52.3717 70.8047 52.3064C70.8047 51.9412 70.9412 51.7364 71.158 51.7126V51.5375C70.9273 51.5604 70.7001 51.6102 70.4811 51.6859C70.1808 51.687 69.8815 51.6501 69.5905 51.5761C69.5033 51.6389 69.4007 51.6768 69.2936 51.6859L67.7469 51.7393L67.5569 51.8343C67.5549 51.7789 67.5183 51.7562 67.447 51.7661H67.3669L67.162 51.8611C67.162 51.8096 66.9997 51.7641 66.6752 51.7245L66.4852 51.8343L66.1052 51.8611V51.7661C68.0883 51.5484 69.069 51.2772 69.0472 50.9526C69.1679 50.9506 69.2362 51.009 69.252 51.1278L69.8458 50.9793V50.8042L65.0958 50.9408C65.0958 51.009 65.0691 51.0357 65.0008 51.0506L64.407 50.9972C64.2734 51.0003 64.1448 51.0484 64.0419 51.1337L63.8252 51.0536C63.3718 51.081 62.9223 51.1536 62.4833 51.2703C62.0317 51.2358 61.5781 51.2358 61.1266 51.2703L60.0548 51.3653L59.568 51.3118C60.018 49.7057 60.6359 48.1514 61.4116 46.6747C61.6035 46.0211 61.9532 45.4246 62.4298 44.9379C62.532 44.9435 62.6324 44.9666 62.7267 45.0062L63.4867 44.7479L63.8786 44.8162C64.6587 44.7323 65.4244 44.5456 66.1556 44.2611C66.319 44.241 66.4848 44.2552 66.6425 44.3026L67.2362 44.1661L68.9581 44.0176C69.7643 43.9368 70.5601 43.7736 71.3331 43.5308V43.3556C71.0105 43.3813 70.8433 43.3318 70.8314 43.2072C70.8057 42.9657 70.5711 42.8667 70.1278 42.9103V42.7351L70.6028 42.5986L71.8497 42.4887V42.3136H71.0778V42.1236L71.5647 42.082C71.6864 42.082 71.7547 42.0018 71.7398 41.892C71.0897 41.892 70.7631 41.892 70.7631 41.797C68.511 42.0221 66.2442 42.0628 63.9855 41.9187C63.8772 41.9313 63.7745 41.9734 63.6886 42.0404L63.5312 41.8C64.0386 40.4247 64.7469 39.1321 65.6331 37.9643C65.6241 38.1326 65.573 38.2959 65.4847 38.4393V38.5195H65.6747C66.1497 37.3795 66.5416 36.7976 66.88 36.7709C68.2902 36.6492 66.6752 36.5542 69.7122 36.0792C69.7955 36.1231 69.8881 36.1465 69.9823 36.1475C71.1698 35.906 72.8284 35.6576 74.958 35.4023V35.2272L73.818 35.337V35.1618C73.9423 35.153 74.0607 35.1052 74.1564 35.0253V35.1203C74.2529 35.1072 74.3431 35.0647 74.4147 34.9986C74.5662 34.9776 74.7206 34.996 74.863 35.052C75.1739 34.9629 75.4917 34.8994 75.813 34.862L76.5166 34.7937C76.6927 34.6849 76.7739 34.5859 76.76 34.4968V34.4167C76.5513 34.4248 76.3423 34.4109 76.1366 34.3751C76.1366 34.2801 76.1781 34.2118 76.2998 34.1851L77.615 34.0634L78.2266 33.915C78.2266 33.9833 78.2681 34.01 78.3067 34.01C78.4033 33.9968 78.4934 33.9544 78.565 33.8883C78.7444 33.9187 78.9263 33.9326 79.1083 33.9298C79.3516 33.6974 79.6367 33.5131 79.9484 33.3865C79.8424 33.2993 79.7666 33.1809 79.7317 33.0481L78.8411 33.1283C78.8242 33.0337 78.7921 32.9424 78.7461 32.8581C78.7461 32.7779 78.9361 32.6948 79.3398 32.6147L79.515 32.6829L79.6783 32.5879C79.6773 32.5997 79.6794 32.6115 79.6844 32.6221C79.6893 32.6328 79.6969 32.6421 79.7065 32.6489C79.716 32.6558 79.7272 32.6601 79.7389 32.6614C79.7506 32.6626 79.7625 32.6609 79.7733 32.6562L79.9366 32.5612C79.9356 32.573 79.9377 32.5847 79.9426 32.5954C79.9476 32.6061 79.9552 32.6153 79.9648 32.6222C79.9743 32.6291 79.9855 32.6334 79.9972 32.6346C80.0089 32.6359 80.0207 32.6341 80.0316 32.6295H80.1117V32.4543H79.1498L78.9866 32.5642V32.4692C74.8501 32.8037 72.5048 33.0016 71.9506 33.0629H71.0837C71.0857 33.1342 71.0273 33.1708 70.9086 33.1728L70.7334 33.0926L70.1219 33.2411C69.8821 33.2467 69.6422 33.2378 69.4034 33.2143C69.3051 33.2897 69.1881 33.3369 69.065 33.3509C68.9284 33.3509 72.3455 33.1609 72.2386 33.1075L71.7102 33.2559H71.63C71.3586 33.2718 71.0863 33.2629 70.8166 33.2292C70.6863 33.3114 70.537 33.3585 70.3831 33.3658C70.2611 33.3801 70.1377 33.3562 70.0298 33.2975C69.8814 33.339 69.4361 33.4459 68.7147 33.5943L68.6761 33.529ZM68.8928 34.0723C68.8928 34.1406 68.9611 34.1673 69.068 34.1525V34.3276H68.8928C68.7708 34.342 68.6474 34.3181 68.5395 34.2593C68.4438 34.3393 68.3254 34.387 68.2011 34.3959H68.2812L67.7944 34.3425V34.2623C68.1767 34.2427 68.5548 34.1738 68.9195 34.0575L68.8928 34.0723ZM69.3411 34.0308H69.4361V34.2059L69.1659 34.2326C69.163 34.2073 69.1654 34.1816 69.1732 34.1573C69.181 34.1331 69.194 34.1107 69.2111 34.0919C69.2283 34.073 69.2493 34.0581 69.2728 34.048C69.2962 34.038 69.3215 34.0331 69.347 34.0337L69.3411 34.0308ZM70.3861 33.9209V34.0159C70.1235 34.0416 69.8647 34.0964 69.6142 34.1792H69.5192L69.5994 33.9892L70.3712 33.909L70.3861 33.9209ZM62.6852 34.8115L62.982 34.7848V34.6097L62.6852 34.6364V34.8115ZM64.8137 34.6215H64.9236L65.1284 34.7017C65.1339 34.7265 65.1334 34.7522 65.1268 34.7767C65.1202 34.8013 65.1077 34.8238 65.0905 34.8425C65.0733 34.8611 65.0518 34.8754 65.0279 34.8839C65.004 34.8925 64.9784 34.8952 64.9533 34.8917L64.6564 34.9184V34.8234C64.6297 34.7106 64.698 34.6572 64.8197 34.6156L64.8137 34.6215ZM71.6419 35.0134V35.0936L71.0303 35.147V35.0668L71.6419 35.0134ZM69.8933 35.2717V35.3667L69.54 35.3934V35.2984L69.8933 35.2717ZM70.3683 35.6784C70.49 35.6784 70.5434 35.72 70.5583 35.8417L70.0417 35.8951V35.72L70.3802 35.6784H70.3683ZM71.6805 35.5122L71.3302 35.6101L71.2055 35.5329L69.2966 35.622V35.717L72.4702 35.5686V35.4736L71.6805 35.5122ZM69.4866 35.8684V35.9486L68.7948 36.0168V35.9218L69.4866 35.8684ZM64.9444 39.4606V39.5556H65.1492C65.1503 39.4529 65.1736 39.3516 65.2175 39.2587V39.0836C65.1077 39.0836 65.0127 39.2201 64.9473 39.4636L64.9444 39.4606ZM57.9619 49.6018V49.682C57.9619 49.8037 57.9084 49.872 57.7719 49.8868V49.8067C57.757 49.6909 57.8223 49.6375 57.9589 49.5959L57.9619 49.6018ZM57.7867 49.9818C57.7289 50.4342 57.6101 50.8766 57.4334 51.297L57.1366 51.3237C57.2378 50.8688 57.3922 50.4274 57.5967 50.0086L57.7867 49.9818ZM61.0523 52.814C61.0543 52.913 60.9009 53.0169 60.5922 53.1258L59.9984 53.0842H59.8084V52.909L61.0702 52.7992L61.0523 52.814ZM61.6461 52.8675V52.9476L61.1592 52.9892V52.909L61.6461 52.8675Z" fill="#FBC02D"/>
</svg>
