<svg width="70" height="70" viewBox="0 0 70 70" fill="none" xmlns="http://www.w3.org/2000/svg">
<g clip-path="url(#clip0_321_128)">
<path d="M0 0H70V70H0V0Z" fill="#F7DF1E"/>
<path d="M18.4055 58.497L23.7622 55.2552C24.7958 57.0875 25.7359 58.6379 27.9909 58.6379C30.1524 58.6379 31.5155 57.7924 31.5155 54.5035V32.1369H38.0936V54.5965C38.0936 61.4097 34.0998 64.511 28.2728 64.511C23.0105 64.511 19.9559 61.7857 18.4053 58.4965M41.6666 57.7921L47.0227 54.6911C48.4328 56.9937 50.2654 58.6852 53.5073 58.6852C56.2332 58.6852 57.9711 57.3223 57.9711 55.4427C57.9711 53.1874 56.1856 52.3884 53.1783 51.0732L51.5341 50.3677C46.7881 48.3479 43.64 45.8104 43.64 40.4537C43.64 35.5198 47.3989 31.7606 53.2727 31.7606C57.4546 31.7606 60.4619 33.2175 62.6231 37.0235L57.5011 40.3129C56.3732 38.2925 55.152 37.4938 53.2724 37.4938C51.3457 37.4938 50.124 38.7155 50.124 40.3129C50.124 42.2863 51.3457 43.0856 54.1649 44.3073L55.8093 45.0119C61.4011 47.4086 64.5492 49.8518 64.5492 55.349C64.5492 61.27 59.8975 64.5118 53.6481 64.5118C47.5398 64.5118 43.5927 61.5986 41.6663 57.7924" fill="black"/>
</g>
<defs>
<clipPath id="clip0_321_128">
<rect width="70" height="70" fill="white"/>
</clipPath>
</defs>
</svg>
