<svg width="70" height="70" viewBox="0 0 70 70" fill="none" xmlns="http://www.w3.org/2000/svg">
<path d="M4.4453 16.4399C-1.75217 25.6859 -0.980645 37.7166 3.75357 47.5418C3.86596 47.7775 3.98396 48.0091 4.10028 48.2406L4.32168 48.6834L4.45991 48.9383L4.7066 49.3968C4.85382 49.6655 5.00442 49.9336 5.15838 50.2011L5.41631 50.6421C5.58713 50.9279 5.76189 51.2118 5.94058 51.4937L6.16423 51.8519C6.41091 52.234 6.66322 52.6154 6.92395 52.9899L6.94587 53.0191L7.07398 53.1987C7.29988 53.5215 7.53064 53.8402 7.76628 54.1548L8.02701 54.4989C8.23679 54.7723 8.44995 55.0443 8.66648 55.315L8.91092 55.6183C9.20252 55.9755 9.49963 56.3279 9.80213 56.6753L9.82067 56.6945L9.85495 56.7342C10.1522 57.0691 10.4542 57.3995 10.7608 57.7252L11.0513 58.0291C11.2892 58.2772 11.5302 58.5226 11.7745 58.7652L12.0706 59.0569C12.3962 59.3758 12.7266 59.6882 13.0619 59.9943L13.0776 60.0071L13.2501 60.1599C13.5468 60.4267 13.847 60.6898 14.1509 60.9491L14.524 61.2577C14.772 61.4642 15.0222 61.6672 15.2747 61.8667L15.6759 62.1834C15.9546 62.3965 16.2354 62.6055 16.5183 62.8105L16.8251 63.0362L16.9094 63.0986C17.178 63.2905 17.4527 63.4754 17.7275 63.6604L18.0815 63.9053C18.503 64.1818 18.93 64.4554 19.3622 64.7196L19.7162 64.9267C20.0335 65.1173 20.3538 65.3037 20.6771 65.4861C20.8524 65.5841 21.0322 65.6768 21.2086 65.7708C21.4373 65.895 21.6644 66.021 21.897 66.1417L22.056 66.2217L22.3375 66.3628C22.6975 66.5417 23.0609 66.7161 23.4277 66.886L23.6581 66.9934C24.0787 67.1844 24.5026 67.3674 24.9297 67.5423L25.2393 67.6688C25.6349 67.8269 26.0361 67.9832 26.439 68.1302L26.5896 68.1845C27.0319 68.3449 27.478 68.4936 27.9276 68.6389L28.2507 68.7392C28.7081 68.8821 29.1604 69.053 29.6319 69.1434C59.6044 74.8173 68.3109 50.4467 68.3109 50.4467C60.9985 60.3355 48.0192 62.9441 35.7215 60.0398C35.2556 59.9307 34.8038 59.7796 34.3492 59.6402L34.007 59.5323C33.5641 59.3913 33.1235 59.2425 32.6854 59.0861L32.5039 59.0178C32.1132 58.8745 31.7247 58.725 31.3385 58.5692L31.0114 58.4357C30.5881 58.2626 30.1687 58.0816 29.7533 57.8926L29.5021 57.7771C29.1464 57.6103 28.7926 57.4394 28.4406 57.2644L28.1338 57.1116C27.8579 56.9722 27.5848 56.824 27.3128 56.6782C27.1308 56.5784 26.9453 56.4845 26.7649 56.3807C26.4339 56.1956 26.1058 56.0046 25.781 55.8079L25.4489 55.6154C25.0176 55.3511 24.5904 55.0794 24.1677 54.8005L23.8222 54.5614C23.5148 54.3568 23.2108 54.147 22.9101 53.932L22.6168 53.7179C22.3273 53.5054 22.0399 53.2898 21.7548 53.071L21.3733 52.7712C21.1113 52.5644 20.8521 52.354 20.5956 52.14L20.2489 51.8513C19.9223 51.5734 19.5993 51.2908 19.2801 51.0038L19.1739 50.911C18.83 50.5959 18.4906 50.2757 18.1557 49.9503L17.8686 49.6639C17.6207 49.4189 17.3769 49.1722 17.1369 48.919L16.8503 48.6221C16.5459 48.2986 16.2465 47.97 15.9524 47.6363L15.908 47.5873C15.5981 47.2346 15.2944 46.876 14.9971 46.5117L14.7589 46.2177C14.5368 45.9403 14.3182 45.6599 14.1031 45.3766L13.8632 45.0663C13.606 44.7213 13.3537 44.3724 13.1062 44.0198C6.27886 34.3521 3.8255 21.0189 9.28235 10.069M23.6839 8.64927C19.2014 15.3445 19.4453 24.3076 22.9416 31.3883C23.5274 32.5783 24.1897 33.7259 24.9241 34.8234C25.5956 35.8226 26.3401 37.0114 27.2313 37.814C27.5572 38.1846 27.8926 38.546 28.2372 38.8978L28.5024 39.1691C28.8371 39.5077 29.1796 39.8379 29.5296 40.1595L29.5712 40.1968L29.5813 40.2073C29.9728 40.5613 30.3728 40.905 30.781 41.238L31.0536 41.4585C31.4639 41.7867 31.8823 42.104 32.3083 42.4099L32.3449 42.4385C32.5337 42.5738 32.7258 42.6998 32.9175 42.8305L33.1889 43.0165C33.4946 43.2207 33.8046 43.4181 34.1189 43.6086L34.2509 43.6879C34.5229 43.8505 34.7969 44.0095 35.073 44.1651L35.3658 44.3232C35.5563 44.4264 35.7468 44.532 35.9406 44.6323L36.0277 44.6731C36.4228 44.875 36.8212 45.0698 37.228 45.2535L37.4932 45.3667C37.8186 45.5102 38.1473 45.6502 38.4766 45.7808L38.898 45.9412C39.1975 46.0567 39.4982 46.1617 39.801 46.2673L40.2096 46.4032C40.6406 46.542 41.0665 46.7176 41.5155 46.7952C64.6572 50.7751 70 32.279 70 32.279C65.1843 39.4788 55.8575 42.9145 45.9052 40.2324C45.4652 40.1124 45.0281 39.9813 44.5943 39.8393L44.2004 39.7069C43.8929 39.6037 43.5873 39.4944 43.2838 39.379L42.8703 39.2192C42.5391 39.0873 42.2102 38.9497 41.8835 38.8062L41.6177 38.6896C41.2108 38.5057 40.8084 38.3114 40.4107 38.1068C40.2067 38.0036 40.0061 37.8945 39.805 37.7872L39.4555 37.6005C39.1977 37.4554 38.9423 37.3057 38.6896 37.1514L38.5064 37.0435C38.1933 36.854 37.884 36.6579 37.5786 36.4555L37.2988 36.2618C37.0972 36.1265 36.897 35.9891 36.6981 35.8495C36.274 35.5432 35.8569 35.2266 35.4472 34.8998L35.1657 34.6694C30.8097 31.0996 27.3561 26.2196 25.7147 20.687C23.9941 14.9496 24.365 8.5087 27.346 3.2811M39.8645 2.82904C37.2224 6.86552 36.9628 11.8785 38.7963 16.3361C40.7299 21.0685 44.6915 24.78 49.3156 26.541C49.506 26.614 49.6971 26.6793 49.8898 26.7475L50.1433 26.8309C50.4158 26.9196 50.6861 27.0229 50.9676 27.0783C63.7458 29.6413 67.2117 20.2717 68.1338 18.8921C65.0983 23.4297 59.9961 24.5187 53.7357 22.9415C53.2412 22.8172 52.6978 22.6317 52.2213 22.4561C51.609 22.2306 51.0086 21.9719 50.4225 21.6809C49.3099 21.1258 48.2535 20.4567 47.269 19.6837C41.6672 15.271 38.1872 6.85444 41.8425 0" fill="#0868AC"/>
</svg>
