<svg width="70" height="70" viewBox="0 0 70 70" fill="none" xmlns="http://www.w3.org/2000/svg">
<path d="M68.6795 31.8822L38.1166 1.32005C36.3577 -0.440016 33.503 -0.440016 31.7413 1.32005L25.3954 7.66715L33.4459 15.7178C35.3174 15.0862 37.4623 15.5098 38.9534 17.0009C40.4523 18.5015 40.8726 20.6647 40.2255 22.5423L47.9843 30.3018C49.8613 29.6546 52.0278 30.0728 53.5262 31.5744C55.6222 33.6689 55.6222 37.0642 53.5262 39.1598C53.028 39.6581 52.4366 40.0535 51.7857 40.3232C51.1347 40.5929 50.437 40.7318 49.7324 40.7318C49.0278 40.7318 48.3301 40.5929 47.6791 40.3232C47.0282 40.0535 46.4368 39.6581 45.9387 39.1598C45.1905 38.4108 44.6805 37.4573 44.4728 36.4192C44.2651 35.3811 44.369 34.3048 44.7714 33.3256L37.536 26.0902L37.5349 45.1331C38.0599 45.3916 38.5392 45.734 38.9539 46.1468C41.0489 48.2412 41.0489 51.6355 38.9539 53.7344C36.8584 55.8288 33.462 55.8288 31.3687 53.7344C29.2737 51.6361 29.2737 48.2418 31.3687 46.1468C31.8711 45.6446 32.4679 45.247 33.1248 44.9767V25.7574C32.4672 25.4884 31.8701 25.0903 31.3687 24.5868C29.7817 23.0009 29.3996 20.6719 30.2136 18.7222L22.2768 10.7852L1.32042 31.7408C0.474955 32.5865 0 33.7334 0 34.9293C0 36.1252 0.474955 37.2721 1.32042 38.1178L31.8838 68.68C33.6439 70.44 36.4974 70.44 38.2602 68.68L68.68 38.2598C69.5253 37.4138 70.0001 36.2668 70 35.0709C69.9999 33.875 69.5249 32.728 68.6795 31.8822Z" fill="#F34F29"/>
</svg>
